# xmcd CD database file
#
# Track frame offsets:
#	150
#	17250
#	31825
#	48905
#
# Disc length: 844 seconds
#
# Revision: 0
# Processed by: cddbd v1.4PL0 Copyright (c) Steve Scherf et al.
# Submitted via: CD2WAV32(EN) R3.17
#
DISCID=1e034a04
DTITLE=ITOU Masumi - Mahou no Kotoba
DYEAR=1900
DGENRE=
TTITLE0=Let's Sail batsealer
TTITLE1=Mahou no Kotoba
TTITLE2=Let's Sail batsealer Oke
TTITLE3=Mahou no Kotoba Oke
EXTD=
EXTT0=
EXTT1=
EXTT2=
EXTT3=
PLAYORDER=
